<?xml version="1.0" encoding="UTF-8"?>
<svg xmlns="http://www.w3.org/2000/svg" viewBox="0 0 512 512" width="512" height="512">
  <!-- Internet Archive building icon with columns -->
  <!-- Base/foundation -->
  <rect x="56" y="440" width="400" height="32" fill="#666666"/>
  
  <!-- Steps leading up -->
  <rect x="86" y="420" width="340" height="20" fill="#777777"/>
  <rect x="116" y="400" width="280" height="20" fill="#888888"/>
  
  <!-- Main building base -->
  <rect x="96" y="160" width="320" height="240" fill="#999999"/>
  
  <!-- Columns (5 columns representing the Internet Archive) -->
  <rect x="110" y="180" width="32" height="220" fill="#CCCCCC"/>
  <rect x="174" y="180" width="32" height="220" fill="#CCCCCC"/>
  <rect x="238" y="180" width="32" height="220" fill="#CCCCCC"/>
  <rect x="302" y="180" width="32" height="220" fill="#CCCCCC"/>
  <rect x="366" y="180" width="32" height="220" fill="#CCCCCC"/>
  
  <!-- Column capitals -->
  <rect x="104" y="160" width="44" height="20" fill="#AAAAAA"/>
  <rect x="168" y="160" width="44" height="20" fill="#AAAAAA"/>
  <rect x="232" y="160" width="44" height="20" fill="#AAAAAA"/>
  <rect x="296" y="160" width="44" height="20" fill="#AAAAAA"/>
  <rect x="360" y="160" width="44" height="20" fill="#AAAAAA"/>
  
  <!-- Pediment/roof triangle -->
  <polygon points="256,80 96,160 416,160" fill="#888888"/>
  
  <!-- Roof detail -->
  <rect x="96" y="140" width="320" height="20" fill="#999999"/>
</svg>
